<mxfile host="app.diagrams.net" agent="Mozilla/5.0 (X11; Ubuntu; Linux x86_64; rv:133.0) Gecko/20100101 Firefox/133.0" version="25.0.3">
  <diagram name="Page-1" id="xb2E6QKW1aYD7FRETWPg">
    <mxGraphModel dx="765" dy="522" grid="1" gridSize="10" guides="1" tooltips="1" connect="1" arrows="1" fold="1" page="1" pageScale="1" pageWidth="850" pageHeight="1100" math="0" shadow="0">
      <root>
        <mxCell id="0" />
        <mxCell id="1" parent="0" />
        <mxCell id="DBdt1vA5wa_5RTKq-SXv-3" value="" style="edgeStyle=orthogonalEdgeStyle;rounded=0;orthogonalLoop=1;jettySize=auto;html=1;" edge="1" parent="1" source="DBdt1vA5wa_5RTKq-SXv-1" target="DBdt1vA5wa_5RTKq-SXv-2">
          <mxGeometry relative="1" as="geometry" />
        </mxCell>
        <mxCell id="DBdt1vA5wa_5RTKq-SXv-10" value="&amp;nbsp;Sign&amp;nbsp; " style="edgeLabel;html=1;align=center;verticalAlign=middle;resizable=0;points=[];labelPadding=0;noLabel=0;container=0;imageAspect=1;absoluteArcSize=0;strokeOpacity=100;direction=east;fixDash=0;" vertex="1" connectable="0" parent="DBdt1vA5wa_5RTKq-SXv-3">
          <mxGeometry relative="1" as="geometry">
            <mxPoint as="offset" />
          </mxGeometry>
        </mxCell>
        <mxCell id="DBdt1vA5wa_5RTKq-SXv-1" value="&lt;div&gt;Platform Key&lt;/div&gt;(PK)" style="rounded=0;whiteSpace=wrap;html=1;fillColor=none;" vertex="1" parent="1">
          <mxGeometry x="20" y="330" width="120" height="60" as="geometry" />
        </mxCell>
        <mxCell id="DBdt1vA5wa_5RTKq-SXv-5" value="" style="rounded=0;orthogonalLoop=1;jettySize=auto;html=1;exitX=1;exitY=0.5;exitDx=0;exitDy=0;entryX=0;entryY=0.5;entryDx=0;entryDy=0;" edge="1" parent="1" source="DBdt1vA5wa_5RTKq-SXv-2" target="DBdt1vA5wa_5RTKq-SXv-4">
          <mxGeometry relative="1" as="geometry" />
        </mxCell>
        <mxCell id="DBdt1vA5wa_5RTKq-SXv-11" value="&amp;nbsp;Sign&amp;nbsp; " style="edgeLabel;html=1;align=center;verticalAlign=middle;resizable=0;points=[];" vertex="1" connectable="0" parent="DBdt1vA5wa_5RTKq-SXv-5">
          <mxGeometry relative="1" as="geometry">
            <mxPoint as="offset" />
          </mxGeometry>
        </mxCell>
        <mxCell id="DBdt1vA5wa_5RTKq-SXv-2" value="&lt;div&gt;Key Exchange Key&lt;/div&gt;&lt;div&gt;(KEK)&lt;br&gt;&lt;/div&gt;" style="rounded=0;whiteSpace=wrap;html=1;fillColor=none;" vertex="1" parent="1">
          <mxGeometry x="213" y="330" width="120" height="60" as="geometry" />
        </mxCell>
        <mxCell id="DBdt1vA5wa_5RTKq-SXv-14" value="" style="edgeStyle=orthogonalEdgeStyle;rounded=0;orthogonalLoop=1;jettySize=auto;html=1;" edge="1" parent="1" source="DBdt1vA5wa_5RTKq-SXv-4" target="DBdt1vA5wa_5RTKq-SXv-13">
          <mxGeometry relative="1" as="geometry" />
        </mxCell>
        <mxCell id="DBdt1vA5wa_5RTKq-SXv-15" value="&amp;nbsp;Sign&amp;nbsp; " style="edgeLabel;html=1;align=center;verticalAlign=middle;resizable=0;points=[];" vertex="1" connectable="0" parent="DBdt1vA5wa_5RTKq-SXv-14">
          <mxGeometry relative="1" as="geometry">
            <mxPoint as="offset" />
          </mxGeometry>
        </mxCell>
        <mxCell id="DBdt1vA5wa_5RTKq-SXv-4" value="Allow DB (db)" style="rounded=0;whiteSpace=wrap;html=1;fillColor=none;" vertex="1" parent="1">
          <mxGeometry x="407" y="330" width="120" height="60" as="geometry" />
        </mxCell>
        <mxCell id="DBdt1vA5wa_5RTKq-SXv-13" value="UKI (EFI executable)" style="rounded=0;whiteSpace=wrap;html=1;fillColor=none;" vertex="1" parent="1">
          <mxGeometry x="600" y="330" width="120" height="60" as="geometry" />
        </mxCell>
      </root>
    </mxGraphModel>
  </diagram>
</mxfile>
